<svg width="500" height="500" viewBox="0 0 500 500" fill="none" xmlns="http://www.w3.org/2000/svg">
<path fill-rule="evenodd" clip-rule="evenodd" d="M124.329 124.333H376.643V376.167H124.329V124.333Z" fill="#FFEF38"/>
<path d="M377.972 377.5H123V123H377.972V377.5ZM125.659 374.834H375.314V125.666H125.659V374.834Z" fill="#003DA4"/>
<path fill-rule="evenodd" clip-rule="evenodd" d="M230.945 296.977L210.339 283.112L308.314 216.854L247.827 176.06L219.379 195.257L241.447 209.922L190.532 244.051L147.859 215.788L250.619 147.13L352.582 215.521L230.945 296.977ZM269.629 202.99L290.234 216.854L192.26 283.112L252.879 323.907L281.328 304.71L259.26 290.178L310.308 256.049L352.98 284.312L249.954 352.837L148.258 284.712L269.629 202.99ZM189.734 325.64L168.73 311.242L147.46 325.64L147.726 353.37L189.734 325.64ZM311.77 175.393L332.907 189.791L353.512 176.06V147.663L311.77 175.393Z" fill="#003DA4"/>
</svg>
