<svg xmlns="http://www.w3.org/2000/svg" fill="#fff" viewBox="0 0 195.15 44.42"><path d="m168.59 17.22-3.17 3.92a1.67 1.67 0 0 0 0 2.11c1.06 1.35 2.12 2.55 3.17 3.91a1.68 1.68 0 0 0 2.65 0c1.05-1.35 2.1-2.6 3.16-3.91a1.7 1.7 0 0 0 0-2.12l-3.19-3.91a1.68 1.68 0 0 0-2.62 0zm9.97-14.91h-1a.54.54 0 0 0-.42.88c2.39 3 4.8 6 7.2 9q3.27 4.1 6.5 8.18a3 3 0 0 1 0 3.72l-6.46 8.12q-3.62 4.53-7.25 9.05a.54.54 0 0 0 .42.87h1a3.21 3.21 0 0 0 2.51-1.2l13.38-16.7a3.23 3.23 0 0 0 0-4L181.07 3.52a3.19 3.19 0 0 0-2.51-1.21z"/><path d="M171.15 0h-7.49a1.8 1.8 0 0 0-1.45 2.86c4.45 6.11 9.55 12.23 14.06 18.34a1.68 1.68 0 0 1 0 2c-4.51 6.12-9.61 12.23-14.06 18.35a1.79 1.79 0 0 0 1.45 2.85h7.49a3.58 3.58 0 0 0 2.8-1.34l14.93-18.64a3.59 3.59 0 0 0 0-4.49L174 1.34A3.58 3.58 0 0 0 171.15 0zM11.93 22.2c1.11-5.8 4-8.27 9.2-8.27 4.64 0 6.53 2.51 5.54 7.52l-.08.45a1.92 1.92 0 0 1-1.89 1.57h-8.53c-.12 2.32 1 3.31 3.16 3.31a8.62 8.62 0 0 0 2.5-.37 1.69 1.69 0 0 1 2.17 1.7 1.7 1.7 0 0 1-1 1.47 10.38 10.38 0 0 1-4.34.86c-5.49 0-7.88-2.44-6.73-8.24zm4.67-1.27h5.95c.43-2.23-.28-3.35-2.26-3.35s-3.07 1.02-3.69 3.35zm11.25 1.27c1.11-5.8 4.06-8.27 9.41-8.27a8 8 0 0 1 3.47.72 1.63 1.63 0 0 1 .8 2l-.17.49a1.64 1.64 0 0 1-2.26 1 5.55 5.55 0 0 0-2.55-.53c-2.41 0-3.71 1.36-4.33 4.62s.12 4.58 2.54 4.58a7.34 7.34 0 0 0 2.44-.4A1.65 1.65 0 0 1 39.38 28a1.65 1.65 0 0 1-.86 1.38A9.63 9.63 0 0 1 34 30.44c-5.35 0-7.3-2.44-6.15-8.24zM46 14.27h.28a1.91 1.91 0 0 1 1.92 1.85 5.38 5.38 0 0 1 4.56-2.23c4 0 5.29 1.79 4.49 6l-1.68 8.63a1.93 1.93 0 0 1-1.89 1.56h-.3a1.92 1.92 0 0 1-1.88-2.29l1.35-7c.43-2.27-.25-3.1-1.8-3.1-1.79 0-3 1.3-3.84 3.75l-1.37 7.05A1.91 1.91 0 0 1 44 30.13h-2.66l2.79-14.31A1.93 1.93 0 0 1 46 14.27zm12.79 7.93c1.11-5.8 4-8.27 9.17-8.27s7.09 2.51 6 8.27-4 8.24-9.19 8.24-7.13-2.44-5.98-8.24zm6.69 4.58c2.23 0 3.47-1.36 4.09-4.58s-.06-4.62-2.29-4.62-3.5 1.36-4.12 4.62.06 4.58 2.32 4.58zm8.85.64a1.81 1.81 0 0 1 2.29-1.07 9.92 9.92 0 0 0 3.28.65c1.61 0 2.54-.62 2.69-1.52.53-2.7-7.9-.37-6.69-6.69.65-3.35 3.19-4.83 7.25-4.83a12.9 12.9 0 0 1 3.37.45 1.81 1.81 0 0 1 1.22 2.39 1.81 1.81 0 0 1-2.27 1.07 8.54 8.54 0 0 0-2.72-.44c-1.43 0-2.3.4-2.45 1.33-.56 2.79 7.93.31 6.66 6.81-.65 3.35-3.19 4.9-7.34 4.9a14.71 14.71 0 0 1-4.14-.58 1.8 1.8 0 0 1-1.18-2.37zm18.04-13.15h.56a1.8 1.8 0 0 1 1.8 1.73 6.32 6.32 0 0 1 4.83-2.07c4.55 0 6.16 2.47 5 8.27s-3.69 8.24-8.24 8.24a4.45 4.45 0 0 1-4-1.83l-1 5.08a1.92 1.92 0 0 1-1.88 1.55h-2.67l3.83-19.52a1.81 1.81 0 0 1 1.77-1.45zm.78 10.06c.12 1.62 1.11 2.45 2.88 2.45 2.35 0 3.59-1.36 4.21-4.58s-.09-4.62-2.41-4.62a4.11 4.11 0 0 0-3.91 2.76zm12.76-2.13c1.12-5.8 4-8.27 9.2-8.27 4.65 0 6.54 2.51 5.54 7.52l-.11.63a1.7 1.7 0 0 1-1.67 1.39h-8.72c-.12 2.32 1 3.31 3.16 3.31a8.74 8.74 0 0 0 2.51-.37 1.68 1.68 0 0 1 2.15 1.7 1.68 1.68 0 0 1-1 1.47 10.38 10.38 0 0 1-4.34.86c-5.48 0-7.86-2.44-6.72-8.24zm4.68-1.27h6c.43-2.23-.28-3.35-2.27-3.35s-3.11 1.02-3.73 3.35zm11.24 1.27c1.12-5.8 4-8.27 9.2-8.27 4.65 0 6.54 2.51 5.55 7.52l-.12.63a1.7 1.7 0 0 1-1.66 1.39h-8.72c-.13 2.32 1 3.31 3.16 3.31a8.67 8.67 0 0 0 2.5-.37 1.68 1.68 0 0 1 2.15 1.7 1.67 1.67 0 0 1-1 1.47 10.39 10.39 0 0 1-4.35.86c-5.47 0-7.85-2.44-6.71-8.24zm4.68-1.27h6c.43-2.23-.28-3.35-2.26-3.35s-3.12 1.02-3.74 3.35zm11.25 1.27c1.11-5.8 3.68-8.27 8.23-8.27a4.21 4.21 0 0 1 4 2l1-5.24a1.93 1.93 0 0 1 1.89-1.55h2.63l-3.82 19.6a1.75 1.75 0 0 1-1.69 1.39h-.63a1.75 1.75 0 0 1-1.74-1.61 6.7 6.7 0 0 1-4.87 1.92c-4.54 0-6.12-2.44-5-8.24zm6.78 4.58a3.92 3.92 0 0 0 3-1.15 4 4 0 0 0 1-2l.84-4.23a4.12 4.12 0 0 0-3-1.81 3.6 3.6 0 0 0-2.08.53c-1.07.66-1.73 2-2.14 4.09-.66 3.21.02 4.57 2.38 4.57zM11.76 14.93a1.74 1.74 0 0 0-1.43-.63H6.7l.56-3.16a1.85 1.85 0 0 0-.36-1.42A1.81 1.81 0 0 0 5.6 9a2.37 2.37 0 0 0-1.6.59 2.29 2.29 0 0 0-.86 1.34L2.5 14.3H.83a.51.51 0 0 0-.5.4L0 16.12a1.84 1.84 0 0 0 0 .39 1.7 1.7 0 0 0 .36 1.06 1.8 1.8 0 0 0 1.31.64l-1.34 6.3a9.63 9.63 0 0 0-.2 1.83 3.84 3.84 0 0 0 1.09 2.94c.9.85 2.42 1.26 4.63 1.26a12.62 12.62 0 0 0 1.77-.13 2.61 2.61 0 0 0 2.23-2 2.48 2.48 0 0 0 .05-.45c0-.53-.24-1.4-1.85-1.4H8a10.86 10.86 0 0 1-1.51.12c-1.32 0-1.73-.22-1.84-.32a1 1 0 0 1-.24-.77 4 4 0 0 1 .1-.83l1.38-6.5h5.41a.5.5 0 0 0 .49-.4l.32-1.42a2.56 2.56 0 0 0 0-.39 1.76 1.76 0 0 0-.35-1.12z"/></svg>
